<mxfile host="app.diagrams.net" modified="2024-06-27T23:43:32.646Z" agent="Mozilla/5.0 (Macintosh; Intel Mac OS X 10_15_7) AppleWebKit/537.36 (KHTML, like Gecko) Chrome/124.0.0.0 Safari/537.36 OPR/110.0.0.0" etag="rwStpc-W29Zu9xNXR_Oc" version="24.6.3" type="github">
  <diagram id="C5RBs43oDa-KdzZeNtuy" name="Page-1">
    <mxGraphModel dx="2919" dy="630" grid="1" gridSize="10" guides="1" tooltips="1" connect="1" arrows="1" fold="1" page="1" pageScale="1" pageWidth="827" pageHeight="1169" math="0" shadow="0">
      <root>
        <mxCell id="WIyWlLk6GJQsqaUBKTNV-0" />
        <mxCell id="WIyWlLk6GJQsqaUBKTNV-1" parent="WIyWlLk6GJQsqaUBKTNV-0" />
        <mxCell id="u5qOP3ij6ND8CkqJNDUY-2" value="" style="edgeStyle=orthogonalEdgeStyle;rounded=0;orthogonalLoop=1;jettySize=auto;html=1;" parent="WIyWlLk6GJQsqaUBKTNV-1" source="HAZp1DBVg1G07Br5cqXP-0" edge="1">
          <mxGeometry relative="1" as="geometry">
            <mxPoint x="280" y="170" as="targetPoint" />
          </mxGeometry>
        </mxCell>
        <mxCell id="HAZp1DBVg1G07Br5cqXP-0" value="I" style="ellipse;whiteSpace=wrap;html=1;" parent="WIyWlLk6GJQsqaUBKTNV-1" vertex="1">
          <mxGeometry x="240" y="50" width="80" height="80" as="geometry" />
        </mxCell>
        <mxCell id="u5qOP3ij6ND8CkqJNDUY-5" value="" style="edgeStyle=orthogonalEdgeStyle;rounded=0;orthogonalLoop=1;jettySize=auto;html=1;" parent="WIyWlLk6GJQsqaUBKTNV-1" source="u5qOP3ij6ND8CkqJNDUY-3" edge="1">
          <mxGeometry relative="1" as="geometry">
            <mxPoint x="280" y="270" as="targetPoint" />
          </mxGeometry>
        </mxCell>
        <mxCell id="u5qOP3ij6ND8CkqJNDUY-3" value="opcionMenuPrincipal" style="shape=parallelogram;perimeter=parallelogramPerimeter;whiteSpace=wrap;html=1;fixedSize=1;" parent="WIyWlLk6GJQsqaUBKTNV-1" vertex="1">
          <mxGeometry x="190" y="170" width="180" height="60" as="geometry" />
        </mxCell>
        <mxCell id="u5qOP3ij6ND8CkqJNDUY-9" style="edgeStyle=orthogonalEdgeStyle;rounded=0;orthogonalLoop=1;jettySize=auto;html=1;exitX=1;exitY=0.5;exitDx=0;exitDy=0;entryX=0.5;entryY=0;entryDx=0;entryDy=0;" parent="WIyWlLk6GJQsqaUBKTNV-1" edge="1">
          <mxGeometry relative="1" as="geometry">
            <mxPoint x="370" y="310" as="sourcePoint" />
            <mxPoint x="473.5" y="390" as="targetPoint" />
          </mxGeometry>
        </mxCell>
        <mxCell id="u5qOP3ij6ND8CkqJNDUY-16" value="3" style="edgeLabel;html=1;align=center;verticalAlign=middle;resizable=0;points=[];" parent="u5qOP3ij6ND8CkqJNDUY-9" connectable="0" vertex="1">
          <mxGeometry x="0.4877" y="-2" relative="1" as="geometry">
            <mxPoint x="-8" y="8" as="offset" />
          </mxGeometry>
        </mxCell>
        <mxCell id="u5qOP3ij6ND8CkqJNDUY-10" value="" style="edgeStyle=orthogonalEdgeStyle;rounded=0;orthogonalLoop=1;jettySize=auto;html=1;" parent="WIyWlLk6GJQsqaUBKTNV-1" edge="1">
          <mxGeometry relative="1" as="geometry">
            <mxPoint x="280" y="350" as="sourcePoint" />
            <mxPoint x="280" y="390" as="targetPoint" />
          </mxGeometry>
        </mxCell>
        <mxCell id="u5qOP3ij6ND8CkqJNDUY-15" value="2" style="edgeLabel;html=1;align=center;verticalAlign=middle;resizable=0;points=[];" parent="u5qOP3ij6ND8CkqJNDUY-10" connectable="0" vertex="1">
          <mxGeometry x="-0.15" relative="1" as="geometry">
            <mxPoint x="-10" as="offset" />
          </mxGeometry>
        </mxCell>
        <mxCell id="u5qOP3ij6ND8CkqJNDUY-11" style="edgeStyle=orthogonalEdgeStyle;rounded=0;orthogonalLoop=1;jettySize=auto;html=1;exitX=0;exitY=0.5;exitDx=0;exitDy=0;entryX=0.5;entryY=0;entryDx=0;entryDy=0;" parent="WIyWlLk6GJQsqaUBKTNV-1" edge="1">
          <mxGeometry relative="1" as="geometry">
            <mxPoint x="190" y="310" as="sourcePoint" />
            <mxPoint x="90" y="390" as="targetPoint" />
          </mxGeometry>
        </mxCell>
        <mxCell id="u5qOP3ij6ND8CkqJNDUY-14" value="1" style="edgeLabel;html=1;align=center;verticalAlign=middle;resizable=0;points=[];" parent="u5qOP3ij6ND8CkqJNDUY-11" connectable="0" vertex="1">
          <mxGeometry x="0.4556" y="-2" relative="1" as="geometry">
            <mxPoint x="-8" y="9" as="offset" />
          </mxGeometry>
        </mxCell>
        <mxCell id="u5qOP3ij6ND8CkqJNDUY-13" style="edgeStyle=orthogonalEdgeStyle;rounded=0;orthogonalLoop=1;jettySize=auto;html=1;exitX=1;exitY=0.5;exitDx=0;exitDy=0;" parent="WIyWlLk6GJQsqaUBKTNV-1" target="u5qOP3ij6ND8CkqJNDUY-12" edge="1">
          <mxGeometry relative="1" as="geometry">
            <mxPoint x="370" y="310" as="sourcePoint" />
          </mxGeometry>
        </mxCell>
        <mxCell id="u5qOP3ij6ND8CkqJNDUY-17" value="0" style="edgeLabel;html=1;align=center;verticalAlign=middle;resizable=0;points=[];" parent="u5qOP3ij6ND8CkqJNDUY-13" connectable="0" vertex="1">
          <mxGeometry x="0.7941" y="4" relative="1" as="geometry">
            <mxPoint x="-14" y="5" as="offset" />
          </mxGeometry>
        </mxCell>
        <mxCell id="u5qOP3ij6ND8CkqJNDUY-21" style="edgeStyle=orthogonalEdgeStyle;rounded=0;orthogonalLoop=1;jettySize=auto;html=1;exitX=0.5;exitY=1;exitDx=0;exitDy=0;entryX=0;entryY=0.5;entryDx=0;entryDy=0;" parent="WIyWlLk6GJQsqaUBKTNV-1" target="u5qOP3ij6ND8CkqJNDUY-20" edge="1">
          <mxGeometry relative="1" as="geometry">
            <Array as="points">
              <mxPoint x="90" y="520" />
            </Array>
            <mxPoint x="90" y="450" as="sourcePoint" />
          </mxGeometry>
        </mxCell>
        <mxCell id="u5qOP3ij6ND8CkqJNDUY-22" style="edgeStyle=orthogonalEdgeStyle;rounded=0;orthogonalLoop=1;jettySize=auto;html=1;exitX=0.5;exitY=1;exitDx=0;exitDy=0;entryX=0.5;entryY=0;entryDx=0;entryDy=0;" parent="WIyWlLk6GJQsqaUBKTNV-1" target="u5qOP3ij6ND8CkqJNDUY-20" edge="1">
          <mxGeometry relative="1" as="geometry">
            <mxPoint x="280" y="450" as="sourcePoint" />
          </mxGeometry>
        </mxCell>
        <mxCell id="u5qOP3ij6ND8CkqJNDUY-23" style="edgeStyle=orthogonalEdgeStyle;rounded=0;orthogonalLoop=1;jettySize=auto;html=1;exitX=0.5;exitY=1;exitDx=0;exitDy=0;entryX=1;entryY=0.5;entryDx=0;entryDy=0;" parent="WIyWlLk6GJQsqaUBKTNV-1" target="u5qOP3ij6ND8CkqJNDUY-20" edge="1">
          <mxGeometry relative="1" as="geometry">
            <Array as="points">
              <mxPoint x="474" y="520" />
            </Array>
            <mxPoint x="473.5" y="450" as="sourcePoint" />
          </mxGeometry>
        </mxCell>
        <mxCell id="u5qOP3ij6ND8CkqJNDUY-12" value="F" style="ellipse;whiteSpace=wrap;html=1;aspect=fixed;" parent="WIyWlLk6GJQsqaUBKTNV-1" vertex="1">
          <mxGeometry x="600" y="380" width="80" height="80" as="geometry" />
        </mxCell>
        <mxCell id="u5qOP3ij6ND8CkqJNDUY-24" style="edgeStyle=orthogonalEdgeStyle;rounded=0;orthogonalLoop=1;jettySize=auto;html=1;exitX=0.5;exitY=1;exitDx=0;exitDy=0;entryX=0.5;entryY=0;entryDx=0;entryDy=0;" parent="WIyWlLk6GJQsqaUBKTNV-1" source="u5qOP3ij6ND8CkqJNDUY-20" edge="1">
          <mxGeometry relative="1" as="geometry">
            <mxPoint x="280" y="270" as="targetPoint" />
            <Array as="points">
              <mxPoint x="280" y="580" />
              <mxPoint x="10" y="580" />
              <mxPoint x="10" y="250" />
              <mxPoint x="280" y="250" />
            </Array>
          </mxGeometry>
        </mxCell>
        <mxCell id="u5qOP3ij6ND8CkqJNDUY-20" value="opcionMenuPrincipal" style="shape=parallelogram;perimeter=parallelogramPerimeter;whiteSpace=wrap;html=1;fixedSize=1;" parent="WIyWlLk6GJQsqaUBKTNV-1" vertex="1">
          <mxGeometry x="190" y="490" width="180" height="60" as="geometry" />
        </mxCell>
        <mxCell id="u5qOP3ij6ND8CkqJNDUY-25" value="mostrarPuntajes" style="text;html=1;align=center;verticalAlign=middle;resizable=0;points=[];autosize=1;strokeColor=none;fillColor=none;" parent="WIyWlLk6GJQsqaUBKTNV-1" vertex="1">
          <mxGeometry x="50" y="648" width="120" height="30" as="geometry" />
        </mxCell>
        <mxCell id="u5qOP3ij6ND8CkqJNDUY-26" value="Sub verPuntajes" style="ellipse;whiteSpace=wrap;html=1;" parent="WIyWlLk6GJQsqaUBKTNV-1" vertex="1">
          <mxGeometry x="240" y="690" width="160" height="80" as="geometry" />
        </mxCell>
        <mxCell id="u5qOP3ij6ND8CkqJNDUY-27" value="Fin Sub calcularPuntaje" style="ellipse;whiteSpace=wrap;html=1;" parent="WIyWlLk6GJQsqaUBKTNV-1" vertex="1">
          <mxGeometry x="240" y="1060" width="160" height="80" as="geometry" />
        </mxCell>
        <mxCell id="u5qOP3ij6ND8CkqJNDUY-28" style="edgeStyle=orthogonalEdgeStyle;rounded=0;orthogonalLoop=1;jettySize=auto;html=1;exitX=0.5;exitY=1;exitDx=0;exitDy=0;" parent="WIyWlLk6GJQsqaUBKTNV-1" source="u5qOP3ij6ND8CkqJNDUY-26" target="u5qOP3ij6ND8CkqJNDUY-27" edge="1">
          <mxGeometry relative="1" as="geometry" />
        </mxCell>
        <mxCell id="u5qOP3ij6ND8CkqJNDUY-30" value="" style="edgeStyle=orthogonalEdgeStyle;rounded=0;orthogonalLoop=1;jettySize=auto;html=1;" parent="WIyWlLk6GJQsqaUBKTNV-1" source="u5qOP3ij6ND8CkqJNDUY-29" target="u5qOP3ij6ND8CkqJNDUY-26" edge="1">
          <mxGeometry relative="1" as="geometry" />
        </mxCell>
        <mxCell id="u5qOP3ij6ND8CkqJNDUY-29" value="" style="shape=process;whiteSpace=wrap;html=1;backgroundOutline=1;" parent="WIyWlLk6GJQsqaUBKTNV-1" vertex="1">
          <mxGeometry x="260" y="820" width="120" height="60" as="geometry" />
        </mxCell>
        <mxCell id="u5qOP3ij6ND8CkqJNDUY-31" value="opcionMenuPrincipal" style="rhombus;whiteSpace=wrap;html=1;" parent="WIyWlLk6GJQsqaUBKTNV-1" vertex="1">
          <mxGeometry x="190" y="270" width="180" height="80" as="geometry" />
        </mxCell>
        <mxCell id="JH2BPLY3jY3wUu7ko6vr-0" value="unJugador" style="shape=process;whiteSpace=wrap;html=1;backgroundOutline=1;" parent="WIyWlLk6GJQsqaUBKTNV-1" vertex="1">
          <mxGeometry x="30" y="390" width="120" height="60" as="geometry" />
        </mxCell>
        <mxCell id="JH2BPLY3jY3wUu7ko6vr-1" value="dosJugadores" style="shape=process;whiteSpace=wrap;html=1;backgroundOutline=1;" parent="WIyWlLk6GJQsqaUBKTNV-1" vertex="1">
          <mxGeometry x="220" y="390" width="120" height="60" as="geometry" />
        </mxCell>
        <mxCell id="JH2BPLY3jY3wUu7ko6vr-2" value="verPuntajes" style="shape=process;whiteSpace=wrap;html=1;backgroundOutline=1;" parent="WIyWlLk6GJQsqaUBKTNV-1" vertex="1">
          <mxGeometry x="413.5" y="390" width="120" height="60" as="geometry" />
        </mxCell>
        <mxCell id="6Hut0MXTEwNpOhIjhO51-0" value="EJECUCION" style="rounded=0;whiteSpace=wrap;html=1;fillColor=#ffe6cc;strokeColor=#d79b00;" vertex="1" parent="WIyWlLk6GJQsqaUBKTNV-1">
          <mxGeometry x="-585" y="320" width="110" height="40" as="geometry" />
        </mxCell>
        <mxCell id="6Hut0MXTEwNpOhIjhO51-1" value="SALIDA" style="shape=trapezoid;perimeter=trapezoidPerimeter;whiteSpace=wrap;html=1;fixedSize=1;fillColor=#d5e8d4;strokeColor=#82b366;" vertex="1" parent="WIyWlLk6GJQsqaUBKTNV-1">
          <mxGeometry x="-590" y="380" width="120" height="30" as="geometry" />
        </mxCell>
        <mxCell id="6Hut0MXTEwNpOhIjhO51-2" value="INICIO" style="ellipse;whiteSpace=wrap;html=1;aspect=fixed;fillColor=#fff2cc;strokeColor=#d6b656;" vertex="1" parent="WIyWlLk6GJQsqaUBKTNV-1">
          <mxGeometry x="-620" y="110" width="50" height="50" as="geometry" />
        </mxCell>
        <mxCell id="6Hut0MXTEwNpOhIjhO51-3" value="IF" style="rhombus;whiteSpace=wrap;html=1;fillColor=#f5f5f5;strokeColor=#666666;fontColor=#333333;" vertex="1" parent="WIyWlLk6GJQsqaUBKTNV-1">
          <mxGeometry x="-570" y="220" width="80" height="80" as="geometry" />
        </mxCell>
        <mxCell id="6Hut0MXTEwNpOhIjhO51-4" value="ENTRADA" style="verticalLabelPosition=middle;verticalAlign=middle;html=1;shape=trapezoid;perimeter=trapezoidPerimeter;whiteSpace=wrap;size=0.23;arcSize=10;flipV=1;labelPosition=center;align=center;fillColor=#d5e8d4;strokeColor=#82b366;" vertex="1" parent="WIyWlLk6GJQsqaUBKTNV-1">
          <mxGeometry x="-587.5" y="180" width="115" height="30" as="geometry" />
        </mxCell>
        <mxCell id="6Hut0MXTEwNpOhIjhO51-6" value="FIN" style="ellipse;whiteSpace=wrap;html=1;aspect=fixed;fillColor=#fff2cc;strokeColor=#d6b656;" vertex="1" parent="WIyWlLk6GJQsqaUBKTNV-1">
          <mxGeometry x="-522.5" y="110" width="50" height="50" as="geometry" />
        </mxCell>
        <mxCell id="6Hut0MXTEwNpOhIjhO51-11" value="WHILE" style="swimlane;whiteSpace=wrap;html=1;fillColor=#f5f5f5;fontColor=#333333;strokeColor=#666666;" vertex="1" parent="WIyWlLk6GJQsqaUBKTNV-1">
          <mxGeometry x="-727.5" y="444" width="395" height="126" as="geometry" />
        </mxCell>
        <mxCell id="6Hut0MXTEwNpOhIjhO51-30" value="" style="rounded=0;whiteSpace=wrap;html=1;" vertex="1" parent="WIyWlLk6GJQsqaUBKTNV-1">
          <mxGeometry x="-727.5" y="600" width="397.5" height="300" as="geometry" />
        </mxCell>
        <mxCell id="6Hut0MXTEwNpOhIjhO51-32" value="&lt;b&gt;&lt;font style=&quot;font-size: 15px;&quot;&gt;X&lt;/font&gt;&lt;/b&gt;&lt;br&gt;&lt;br&gt;&lt;b&gt;X = 1&amp;nbsp; &amp;nbsp;X &amp;lt;= 31&amp;nbsp; X++&lt;/b&gt;" style="ellipse;whiteSpace=wrap;html=1;aspect=fixed;fillColor=#dae8fc;strokeColor=#6c8ebf;" vertex="1" parent="WIyWlLk6GJQsqaUBKTNV-1">
          <mxGeometry x="-790" y="630" width="130" height="130" as="geometry" />
        </mxCell>
        <mxCell id="6Hut0MXTEwNpOhIjhO51-33" value="" style="line;strokeWidth=1;html=1;perimeter=backbonePerimeter;points=[];outlineConnect=0;" vertex="1" parent="WIyWlLk6GJQsqaUBKTNV-1">
          <mxGeometry x="-790" y="690" width="130" height="10" as="geometry" />
        </mxCell>
        <mxCell id="6Hut0MXTEwNpOhIjhO51-34" value="" style="line;strokeWidth=1;direction=south;html=1;" vertex="1" parent="WIyWlLk6GJQsqaUBKTNV-1">
          <mxGeometry x="-752" y="695" width="10" height="61" as="geometry" />
        </mxCell>
        <mxCell id="6Hut0MXTEwNpOhIjhO51-35" value="" style="line;strokeWidth=1;direction=south;html=1;" vertex="1" parent="WIyWlLk6GJQsqaUBKTNV-1">
          <mxGeometry x="-700" y="695" width="10" height="58" as="geometry" />
        </mxCell>
        <mxCell id="6Hut0MXTEwNpOhIjhO51-37" value="FUNCIONES" style="shape=hexagon;perimeter=hexagonPerimeter2;whiteSpace=wrap;html=1;size=0.25" vertex="1" parent="WIyWlLk6GJQsqaUBKTNV-1">
          <mxGeometry x="-370" y="235" width="190" height="50" as="geometry" />
        </mxCell>
        <mxCell id="6Hut0MXTEwNpOhIjhO51-60" value="" style="edgeStyle=orthogonalEdgeStyle;rounded=0;orthogonalLoop=1;jettySize=auto;html=1;" edge="1" parent="WIyWlLk6GJQsqaUBKTNV-1" source="6Hut0MXTEwNpOhIjhO51-42">
          <mxGeometry relative="1" as="geometry">
            <mxPoint x="-531.181818181818" y="1619.9999999999998" as="targetPoint" />
          </mxGeometry>
        </mxCell>
        <mxCell id="6Hut0MXTEwNpOhIjhO51-42" value="" style="rounded=0;whiteSpace=wrap;html=1;" vertex="1" parent="WIyWlLk6GJQsqaUBKTNV-1">
          <mxGeometry x="-733" y="1400" width="397.5" height="190" as="geometry" />
        </mxCell>
        <mxCell id="6Hut0MXTEwNpOhIjhO51-43" value="&lt;span style=&quot;font-size: 15px;&quot;&gt;&lt;b&gt;i&lt;/b&gt;&lt;/span&gt;&lt;br&gt;&lt;br&gt;&lt;b&gt;i = 0&amp;nbsp; &amp;nbsp; &amp;nbsp; i &amp;lt; 3&amp;nbsp; &amp;nbsp; &amp;nbsp; &amp;nbsp; i++&lt;/b&gt;" style="ellipse;whiteSpace=wrap;html=1;aspect=fixed;fillColor=#dae8fc;strokeColor=#6c8ebf;" vertex="1" parent="WIyWlLk6GJQsqaUBKTNV-1">
          <mxGeometry x="-790" y="1425" width="130" height="130" as="geometry" />
        </mxCell>
        <mxCell id="6Hut0MXTEwNpOhIjhO51-44" value="" style="line;strokeWidth=1;html=1;perimeter=backbonePerimeter;points=[];outlineConnect=0;" vertex="1" parent="WIyWlLk6GJQsqaUBKTNV-1">
          <mxGeometry x="-790" y="1485" width="130" height="10" as="geometry" />
        </mxCell>
        <mxCell id="6Hut0MXTEwNpOhIjhO51-45" value="" style="line;strokeWidth=1;direction=south;html=1;" vertex="1" parent="WIyWlLk6GJQsqaUBKTNV-1">
          <mxGeometry x="-752" y="1490" width="10" height="60" as="geometry" />
        </mxCell>
        <mxCell id="6Hut0MXTEwNpOhIjhO51-46" value="" style="line;strokeWidth=1;direction=south;html=1;" vertex="1" parent="WIyWlLk6GJQsqaUBKTNV-1">
          <mxGeometry x="-710" y="1490" width="10" height="60" as="geometry" />
        </mxCell>
        <mxCell id="6Hut0MXTEwNpOhIjhO51-65" style="edgeStyle=orthogonalEdgeStyle;rounded=0;orthogonalLoop=1;jettySize=auto;html=1;entryX=0.5;entryY=0;entryDx=0;entryDy=0;" edge="1" parent="WIyWlLk6GJQsqaUBKTNV-1" source="6Hut0MXTEwNpOhIjhO51-47" target="6Hut0MXTEwNpOhIjhO51-51">
          <mxGeometry relative="1" as="geometry" />
        </mxCell>
        <mxCell id="6Hut0MXTEwNpOhIjhO51-47" value="INICIO" style="ellipse;whiteSpace=wrap;html=1;aspect=fixed;fillColor=#fff2cc;strokeColor=#d6b656;" vertex="1" parent="WIyWlLk6GJQsqaUBKTNV-1">
          <mxGeometry x="-563.75" y="1200" width="50" height="50" as="geometry" />
        </mxCell>
        <mxCell id="6Hut0MXTEwNpOhIjhO51-48" value="FIN" style="ellipse;whiteSpace=wrap;html=1;aspect=fixed;fillColor=#fff2cc;strokeColor=#d6b656;" vertex="1" parent="WIyWlLk6GJQsqaUBKTNV-1">
          <mxGeometry x="-556.25" y="1680" width="50" height="50" as="geometry" />
        </mxCell>
        <mxCell id="6Hut0MXTEwNpOhIjhO51-55" value="" style="edgeStyle=orthogonalEdgeStyle;rounded=0;orthogonalLoop=1;jettySize=auto;html=1;" edge="1" parent="WIyWlLk6GJQsqaUBKTNV-1" source="6Hut0MXTEwNpOhIjhO51-49">
          <mxGeometry relative="1" as="geometry">
            <mxPoint x="-539" y="1400" as="targetPoint" />
          </mxGeometry>
        </mxCell>
        <mxCell id="6Hut0MXTEwNpOhIjhO51-49" value="acum" style="rounded=0;whiteSpace=wrap;html=1;fillColor=#ffe6cc;strokeColor=#d79b00;" vertex="1" parent="WIyWlLk6GJQsqaUBKTNV-1">
          <mxGeometry x="-593.75" y="1340" width="110" height="30" as="geometry" />
        </mxCell>
        <mxCell id="6Hut0MXTEwNpOhIjhO51-51" value="&lt;span style=&quot;color: rgb(51, 51, 153); font-weight: bold; font-family: SFMono-Regular, Menlo, Monaco, Consolas, &amp;quot;Liberation Mono&amp;quot;, &amp;quot;Courier New&amp;quot;, monospace; font-size: 13.125px; text-align: left; background-color: initial;&quot;&gt;int&lt;/span&gt;&amp;nbsp;total&lt;br&gt;&lt;pre style=&quot;box-sizing: border-box; font-family: SFMono-Regular, Menlo, Monaco, Consolas, &amp;quot;Liberation Mono&amp;quot;, &amp;quot;Courier New&amp;quot;, monospace; font-size: 13.125px; margin-top: 0px; margin-bottom: 0px; overflow: auto; color: rgb(33, 37, 41); text-align: left; line-height: 16.4062px;&quot; id=&quot;yui_3_17_2_1_1719522832613_25&quot;&gt;&lt;span style=&quot;box-sizing: border-box; color: rgb(51, 51, 153); font-weight: bold;&quot; id=&quot;yui_3_17_2_1_1719522832613_33&quot;&gt;int&lt;/span&gt; vectorPuntajes[]  &lt;/pre&gt;" style="shape=hexagon;perimeter=hexagonPerimeter2;whiteSpace=wrap;html=1;size=0.25" vertex="1" parent="WIyWlLk6GJQsqaUBKTNV-1">
          <mxGeometry x="-714.75" y="1274" width="352" height="46" as="geometry" />
        </mxCell>
        <mxCell id="6Hut0MXTEwNpOhIjhO51-52" value="&lt;pre style=&quot;box-sizing: border-box; font-family: SFMono-Regular, Menlo, Monaco, Consolas, &amp;quot;Liberation Mono&amp;quot;, &amp;quot;Courier New&amp;quot;, monospace; font-size: 13.125px; margin-top: 0px; margin-bottom: 0px; overflow: auto; color: rgb(33, 37, 41); text-align: left; line-height: 16.4062px;&quot; id=&quot;yui_3_17_2_1_1719407686035_30&quot;&gt;acum &lt;span style=&quot;box-sizing: border-box; color: rgb(51, 51, 51);&quot;&gt;+=&lt;/span&gt; vectorPuntajes[i]&lt;/pre&gt;" style="rounded=0;whiteSpace=wrap;html=1;fillColor=#ffe6cc;strokeColor=#d79b00;" vertex="1" parent="WIyWlLk6GJQsqaUBKTNV-1">
          <mxGeometry x="-638.12" y="1480" width="213.75" height="25" as="geometry" />
        </mxCell>
        <mxCell id="6Hut0MXTEwNpOhIjhO51-58" style="edgeStyle=orthogonalEdgeStyle;rounded=0;orthogonalLoop=1;jettySize=auto;html=1;entryX=0.5;entryY=0;entryDx=0;entryDy=0;" edge="1" parent="WIyWlLk6GJQsqaUBKTNV-1" source="6Hut0MXTEwNpOhIjhO51-51" target="6Hut0MXTEwNpOhIjhO51-49">
          <mxGeometry relative="1" as="geometry" />
        </mxCell>
        <mxCell id="6Hut0MXTEwNpOhIjhO51-61" value="" style="edgeStyle=orthogonalEdgeStyle;rounded=0;orthogonalLoop=1;jettySize=auto;html=1;" edge="1" parent="WIyWlLk6GJQsqaUBKTNV-1" target="6Hut0MXTEwNpOhIjhO51-48">
          <mxGeometry relative="1" as="geometry">
            <mxPoint x="-531.181818181818" y="1650" as="sourcePoint" />
          </mxGeometry>
        </mxCell>
        <mxCell id="6Hut0MXTEwNpOhIjhO51-62" value="" style="line;strokeWidth=1;html=1;perimeter=backbonePerimeter;points=[];outlineConnect=0;" vertex="1" parent="WIyWlLk6GJQsqaUBKTNV-1">
          <mxGeometry x="-714.75" y="1292" width="345" height="10" as="geometry" />
        </mxCell>
        <mxCell id="6Hut0MXTEwNpOhIjhO51-66" value="RTN acum" style="shape=hexagon;perimeter=hexagonPerimeter2;whiteSpace=wrap;html=1;size=0.25" vertex="1" parent="WIyWlLk6GJQsqaUBKTNV-1">
          <mxGeometry x="-614.37" y="1620" width="166.25" height="30" as="geometry" />
        </mxCell>
        <mxCell id="6Hut0MXTEwNpOhIjhO51-69" value="" style="line;strokeWidth=1;direction=south;html=1;" vertex="1" parent="WIyWlLk6GJQsqaUBKTNV-1">
          <mxGeometry x="-470" y="1296" width="10" height="24" as="geometry" />
        </mxCell>
        <mxCell id="6Hut0MXTEwNpOhIjhO51-106" style="edgeStyle=orthogonalEdgeStyle;rounded=0;orthogonalLoop=1;jettySize=auto;html=1;" edge="1" parent="WIyWlLk6GJQsqaUBKTNV-1" source="6Hut0MXTEwNpOhIjhO51-81">
          <mxGeometry relative="1" as="geometry">
            <mxPoint x="-512.5" y="2185.7777777777774" as="targetPoint" />
          </mxGeometry>
        </mxCell>
        <mxCell id="6Hut0MXTEwNpOhIjhO51-81" value="opcion" style="rounded=0;whiteSpace=wrap;html=1;fillColor=#ffe6cc;strokeColor=#d79b00;" vertex="1" parent="WIyWlLk6GJQsqaUBKTNV-1">
          <mxGeometry x="-567.5" y="2124" width="110" height="30" as="geometry" />
        </mxCell>
        <mxCell id="6Hut0MXTEwNpOhIjhO51-92" value="" style="edgeStyle=orthogonalEdgeStyle;rounded=0;orthogonalLoop=1;jettySize=auto;html=1;" edge="1" parent="WIyWlLk6GJQsqaUBKTNV-1" source="6Hut0MXTEwNpOhIjhO51-82" target="6Hut0MXTEwNpOhIjhO51-90">
          <mxGeometry relative="1" as="geometry" />
        </mxCell>
        <mxCell id="6Hut0MXTEwNpOhIjhO51-82" value="&lt;div style=&quot;text-align: left;&quot;&gt;&lt;span style=&quot;background-color: initial; font-size: 13.125px;&quot;&gt;&lt;font face=&quot;SFMono-Regular, Menlo, Monaco, Consolas, Liberation Mono, Courier New, monospace&quot; color=&quot;#333399&quot;&gt;&lt;b&gt;&amp;nbsp;&lt;/b&gt;&lt;/font&gt;&lt;/span&gt;&lt;/div&gt;&lt;span style=&quot;background-color: initial; color: rgb(51, 51, 153); font-weight: bold; font-family: SFMono-Regular, Menlo, Monaco, Consolas, &amp;quot;Liberation Mono&amp;quot;, &amp;quot;Courier New&amp;quot;, monospace; font-size: 13.125px; text-align: left;&quot;&gt;bool&lt;/span&gt;&lt;span style=&quot;background-color: initial;&quot;&gt;&amp;nbsp;cambioEmbaucadora&lt;/span&gt;&lt;span style=&quot;background-color: initial;&quot;&gt;&lt;br&gt;&lt;br&gt;&lt;/span&gt;&lt;div&gt;&lt;pre style=&quot;box-sizing: border-box; font-family: SFMono-Regular, Menlo, Monaco, Consolas, &amp;quot;Liberation Mono&amp;quot;, &amp;quot;Courier New&amp;quot;, monospace; font-size: 13.125px; margin-top: 0px; margin-bottom: 0px; overflow: auto; text-align: left; line-height: 16.4062px;&quot; id=&quot;yui_3_17_2_1_1719522832613_25&quot;&gt;&lt;span style=&quot;color: rgb(33, 37, 41);&quot;&gt;&lt;span style=&quot;box-sizing: border-box; color: rgb(51, 51, 153); font-weight: bold;&quot; id=&quot;yui_3_17_2_1_1719522832613_33&quot;&gt;string&lt;/span&gt; vectorDeVisualizacionPalo[] &lt;/span&gt;&lt;font color=&quot;#333399&quot;&gt;&lt;b&gt;string &lt;/b&gt;&lt;/font&gt;&lt;span style=&quot;color: rgb(0, 0, 0); font-family: Helvetica; font-size: 12px; text-align: center; white-space: normal; background-color: initial;&quot;&gt;Embaucadora&lt;br&gt;&lt;/span&gt;   &lt;b style=&quot;color: rgb(51, 51, 153); background-color: initial; white-space: normal;&quot;&gt;string&lt;/b&gt; nombreJugador&amp;nbsp;          &lt;span style=&quot;background-color: initial; white-space: normal;&quot;&gt;&amp;nbsp;&lt;/span&gt;&lt;b style=&quot;background-color: initial; color: rgb(51, 51, 153); white-space: normal;&quot;&gt;int&lt;/b&gt;&lt;span style=&quot;background-color: initial; white-space: normal;&quot;&gt;&amp;nbsp;puntajeJugador&lt;/span&gt;&lt;/pre&gt;&lt;pre style=&quot;box-sizing: border-box; font-family: SFMono-Regular, Menlo, Monaco, Consolas, &amp;quot;Liberation Mono&amp;quot;, &amp;quot;Courier New&amp;quot;, monospace; font-size: 13.125px; margin-top: 0px; margin-bottom: 0px; overflow: auto; text-align: left; line-height: 16.4062px;&quot; id=&quot;yui_3_17_2_1_1719522832613_25&quot;&gt;&lt;font style=&quot;background-color: initial; white-space: normal;&quot; color=&quot;#212529&quot;&gt;&lt;/font&gt;&lt;/pre&gt;&lt;pre style=&quot;box-sizing: border-box; font-family: SFMono-Regular, Menlo, Monaco, Consolas, &amp;quot;Liberation Mono&amp;quot;, &amp;quot;Courier New&amp;quot;, monospace; font-size: 13.125px; margin-top: 0px; margin-bottom: 0px; overflow: auto; color: rgb(33, 37, 41); text-align: left; line-height: 16.4062px;&quot; id=&quot;yui_3_17_2_1_1719522832613_25&quot;&gt;  &lt;/pre&gt;&lt;/div&gt;" style="shape=hexagon;perimeter=hexagonPerimeter2;whiteSpace=wrap;html=1;size=0.25" vertex="1" parent="WIyWlLk6GJQsqaUBKTNV-1">
          <mxGeometry x="-801.13" y="1830" width="574.75" height="94" as="geometry" />
        </mxCell>
        <mxCell id="6Hut0MXTEwNpOhIjhO51-86" value="" style="line;strokeWidth=1;html=1;perimeter=backbonePerimeter;points=[];outlineConnect=0;" vertex="1" parent="WIyWlLk6GJQsqaUBKTNV-1">
          <mxGeometry x="-789" y="1869.5" width="553" height="10" as="geometry" />
        </mxCell>
        <mxCell id="6Hut0MXTEwNpOhIjhO51-88" value="" style="line;strokeWidth=1;direction=south;html=1;" vertex="1" parent="WIyWlLk6GJQsqaUBKTNV-1">
          <mxGeometry x="-455.25" y="1874" width="10" height="50" as="geometry" />
        </mxCell>
        <mxCell id="6Hut0MXTEwNpOhIjhO51-93" style="edgeStyle=orthogonalEdgeStyle;rounded=0;orthogonalLoop=1;jettySize=auto;html=1;entryX=0.5;entryY=0;entryDx=0;entryDy=0;exitX=0;exitY=0.5;exitDx=0;exitDy=0;" edge="1" parent="WIyWlLk6GJQsqaUBKTNV-1" source="6Hut0MXTEwNpOhIjhO51-90" target="6Hut0MXTEwNpOhIjhO51-91">
          <mxGeometry relative="1" as="geometry">
            <Array as="points">
              <mxPoint x="-638" y="2003" />
              <mxPoint x="-638" y="2054" />
            </Array>
          </mxGeometry>
        </mxCell>
        <mxCell id="6Hut0MXTEwNpOhIjhO51-99" style="edgeStyle=orthogonalEdgeStyle;rounded=0;orthogonalLoop=1;jettySize=auto;html=1;entryX=0.5;entryY=0;entryDx=0;entryDy=0;" edge="1" parent="WIyWlLk6GJQsqaUBKTNV-1" source="6Hut0MXTEwNpOhIjhO51-90" target="6Hut0MXTEwNpOhIjhO51-81">
          <mxGeometry relative="1" as="geometry">
            <Array as="points">
              <mxPoint x="-387" y="2003" />
              <mxPoint x="-387" y="2104" />
              <mxPoint x="-513" y="2104" />
            </Array>
          </mxGeometry>
        </mxCell>
        <mxCell id="6Hut0MXTEwNpOhIjhO51-90" value="puntajeJugador &amp;lt;=20" style="rhombus;whiteSpace=wrap;html=1;fillColor=#f5f5f5;strokeColor=#666666;fontColor=#333333;" vertex="1" parent="WIyWlLk6GJQsqaUBKTNV-1">
          <mxGeometry x="-590.88" y="1963" width="154.25" height="80" as="geometry" />
        </mxCell>
        <mxCell id="6Hut0MXTEwNpOhIjhO51-98" style="edgeStyle=orthogonalEdgeStyle;rounded=0;orthogonalLoop=1;jettySize=auto;html=1;" edge="1" parent="WIyWlLk6GJQsqaUBKTNV-1" source="6Hut0MXTEwNpOhIjhO51-91" target="6Hut0MXTEwNpOhIjhO51-81">
          <mxGeometry relative="1" as="geometry" />
        </mxCell>
        <mxCell id="6Hut0MXTEwNpOhIjhO51-91" value="RTN false" style="shape=hexagon;perimeter=hexagonPerimeter2;whiteSpace=wrap;html=1;size=0.25" vertex="1" parent="WIyWlLk6GJQsqaUBKTNV-1">
          <mxGeometry x="-721.5" y="2054" width="166.25" height="30" as="geometry" />
        </mxCell>
        <mxCell id="6Hut0MXTEwNpOhIjhO51-94" value="INICIO" style="ellipse;whiteSpace=wrap;html=1;aspect=fixed;fillColor=#fff2cc;strokeColor=#d6b656;" vertex="1" parent="WIyWlLk6GJQsqaUBKTNV-1">
          <mxGeometry x="-544" y="1750" width="50" height="50" as="geometry" />
        </mxCell>
        <mxCell id="6Hut0MXTEwNpOhIjhO51-96" style="edgeStyle=orthogonalEdgeStyle;rounded=0;orthogonalLoop=1;jettySize=auto;html=1;entryX=0.491;entryY=-0.006;entryDx=0;entryDy=0;entryPerimeter=0;" edge="1" parent="WIyWlLk6GJQsqaUBKTNV-1" source="6Hut0MXTEwNpOhIjhO51-94" target="6Hut0MXTEwNpOhIjhO51-82">
          <mxGeometry relative="1" as="geometry" />
        </mxCell>
        <mxCell id="6Hut0MXTEwNpOhIjhO51-97" value="embaucadoraAnt = embaucadora" style="rounded=0;whiteSpace=wrap;html=1;fillColor=#ffe6cc;strokeColor=#d79b00;" vertex="1" parent="WIyWlLk6GJQsqaUBKTNV-1">
          <mxGeometry x="-617.62" y="2187" width="214" height="33" as="geometry" />
        </mxCell>
        <mxCell id="6Hut0MXTEwNpOhIjhO51-100" value="" style="rounded=0;whiteSpace=wrap;html=1;" vertex="1" parent="WIyWlLk6GJQsqaUBKTNV-1">
          <mxGeometry x="-733" y="2258" width="462" height="183" as="geometry" />
        </mxCell>
        <mxCell id="6Hut0MXTEwNpOhIjhO51-103" style="edgeStyle=orthogonalEdgeStyle;rounded=0;orthogonalLoop=1;jettySize=auto;html=1;entryX=0.5;entryY=0;entryDx=0;entryDy=0;" edge="1" parent="WIyWlLk6GJQsqaUBKTNV-1" source="6Hut0MXTEwNpOhIjhO51-101" target="6Hut0MXTEwNpOhIjhO51-102">
          <mxGeometry relative="1" as="geometry" />
        </mxCell>
        <mxCell id="6Hut0MXTEwNpOhIjhO51-101" value="&lt;div style=&quot;text-align: left;&quot;&gt;&lt;span style=&quot;background-color: initial;&quot;&gt;nombreJugador , &quot;Tienes la posibilidad de cambiar la embaucadora!&lt;br&gt;¿Quieres hacerlo? S para si, N para no: &quot;&lt;/span&gt;&lt;/div&gt;" style="shape=trapezoid;perimeter=trapezoidPerimeter;whiteSpace=wrap;html=1;fixedSize=1;fillColor=#d5e8d4;strokeColor=#82b366;" vertex="1" parent="WIyWlLk6GJQsqaUBKTNV-1">
          <mxGeometry x="-714.75" y="2291" width="418" height="42" as="geometry" />
        </mxCell>
        <mxCell id="6Hut0MXTEwNpOhIjhO51-102" value="opcion" style="verticalLabelPosition=middle;verticalAlign=middle;html=1;shape=trapezoid;perimeter=trapezoidPerimeter;whiteSpace=wrap;size=0.23;arcSize=10;flipV=1;labelPosition=center;align=center;fillColor=#d5e8d4;strokeColor=#82b366;" vertex="1" parent="WIyWlLk6GJQsqaUBKTNV-1">
          <mxGeometry x="-563.75" y="2375" width="115" height="30" as="geometry" />
        </mxCell>
        <mxCell id="6Hut0MXTEwNpOhIjhO51-105" style="edgeStyle=orthogonalEdgeStyle;rounded=0;orthogonalLoop=1;jettySize=auto;html=1;entryX=0.482;entryY=-0.001;entryDx=0;entryDy=0;entryPerimeter=0;" edge="1" parent="WIyWlLk6GJQsqaUBKTNV-1" source="6Hut0MXTEwNpOhIjhO51-97" target="6Hut0MXTEwNpOhIjhO51-100">
          <mxGeometry relative="1" as="geometry" />
        </mxCell>
        <mxCell id="6Hut0MXTEwNpOhIjhO51-107" value="opcion != &#39;S&#39;&amp;nbsp; &amp;amp;&amp;amp; opcion != &#39;N&#39;" style="rounded=0;whiteSpace=wrap;html=1;" vertex="1" parent="WIyWlLk6GJQsqaUBKTNV-1">
          <mxGeometry x="-733" y="2441" width="462" height="24" as="geometry" />
        </mxCell>
        <mxCell id="6Hut0MXTEwNpOhIjhO51-117" style="edgeStyle=orthogonalEdgeStyle;rounded=0;orthogonalLoop=1;jettySize=auto;html=1;entryX=0.5;entryY=0;entryDx=0;entryDy=0;" edge="1" parent="WIyWlLk6GJQsqaUBKTNV-1" source="6Hut0MXTEwNpOhIjhO51-108" target="6Hut0MXTEwNpOhIjhO51-110">
          <mxGeometry relative="1" as="geometry" />
        </mxCell>
        <mxCell id="6Hut0MXTEwNpOhIjhO51-123" style="edgeStyle=orthogonalEdgeStyle;rounded=0;orthogonalLoop=1;jettySize=auto;html=1;entryX=0.5;entryY=0;entryDx=0;entryDy=0;" edge="1" parent="WIyWlLk6GJQsqaUBKTNV-1" source="6Hut0MXTEwNpOhIjhO51-108" target="6Hut0MXTEwNpOhIjhO51-122">
          <mxGeometry relative="1" as="geometry" />
        </mxCell>
        <mxCell id="6Hut0MXTEwNpOhIjhO51-108" value="opcion == &#39;S&#39;" style="rhombus;whiteSpace=wrap;html=1;fillColor=#f5f5f5;strokeColor=#666666;fontColor=#333333;" vertex="1" parent="WIyWlLk6GJQsqaUBKTNV-1">
          <mxGeometry x="-579.13" y="2490" width="154.25" height="80" as="geometry" />
        </mxCell>
        <mxCell id="6Hut0MXTEwNpOhIjhO51-110" value="" style="rounded=0;whiteSpace=wrap;html=1;" vertex="1" parent="WIyWlLk6GJQsqaUBKTNV-1">
          <mxGeometry x="-880" y="2570" width="290" height="90" as="geometry" />
        </mxCell>
        <mxCell id="6Hut0MXTEwNpOhIjhO51-115" value="embaucadora = aleatorioEntre(0 , 3)" style="rounded=0;whiteSpace=wrap;html=1;fillColor=#ffe6cc;strokeColor=#d79b00;" vertex="1" parent="WIyWlLk6GJQsqaUBKTNV-1">
          <mxGeometry x="-833" y="2600" width="229" height="30" as="geometry" />
        </mxCell>
        <mxCell id="6Hut0MXTEwNpOhIjhO51-116" value="embaucadora == embaucadoraAnt" style="rounded=0;whiteSpace=wrap;html=1;" vertex="1" parent="WIyWlLk6GJQsqaUBKTNV-1">
          <mxGeometry x="-880" y="2660" width="290" height="24" as="geometry" />
        </mxCell>
        <mxCell id="6Hut0MXTEwNpOhIjhO51-125" style="edgeStyle=orthogonalEdgeStyle;rounded=0;orthogonalLoop=1;jettySize=auto;html=1;entryX=0.5;entryY=0;entryDx=0;entryDy=0;" edge="1" parent="WIyWlLk6GJQsqaUBKTNV-1" source="6Hut0MXTEwNpOhIjhO51-118" target="6Hut0MXTEwNpOhIjhO51-119">
          <mxGeometry relative="1" as="geometry" />
        </mxCell>
        <mxCell id="6Hut0MXTEwNpOhIjhO51-118" value="&lt;div style=&quot;text-align: left;&quot;&gt;&lt;span style=&quot;background-color: initial;&quot;&gt;nombreJugador , &quot;, se le restaran 20 puntos de su puntaje&quot;&lt;/span&gt;&lt;/div&gt;" style="shape=trapezoid;perimeter=trapezoidPerimeter;whiteSpace=wrap;html=1;fixedSize=1;fillColor=#d5e8d4;strokeColor=#82b366;" vertex="1" parent="WIyWlLk6GJQsqaUBKTNV-1">
          <mxGeometry x="-928.56" y="2715" width="384.56" height="42" as="geometry" />
        </mxCell>
        <mxCell id="6Hut0MXTEwNpOhIjhO51-119" value="&lt;div style=&quot;text-align: left;&quot;&gt;&lt;span style=&quot;background-color: initial;&quot;&gt;&quot;Nueva carta embaucadora: &quot; , vectorDeVisualizacionPalo[embaucadora]&lt;/span&gt;&lt;/div&gt;" style="shape=trapezoid;perimeter=trapezoidPerimeter;whiteSpace=wrap;html=1;fixedSize=1;fillColor=#d5e8d4;strokeColor=#82b366;" vertex="1" parent="WIyWlLk6GJQsqaUBKTNV-1">
          <mxGeometry x="-952.28" y="2790" width="432" height="42" as="geometry" />
        </mxCell>
        <mxCell id="6Hut0MXTEwNpOhIjhO51-120" value="puntajeJugador -= 20" style="rounded=0;whiteSpace=wrap;html=1;fillColor=#ffe6cc;strokeColor=#d79b00;" vertex="1" parent="WIyWlLk6GJQsqaUBKTNV-1">
          <mxGeometry x="-846.62" y="2870" width="229" height="30" as="geometry" />
        </mxCell>
        <mxCell id="6Hut0MXTEwNpOhIjhO51-131" style="edgeStyle=orthogonalEdgeStyle;rounded=0;orthogonalLoop=1;jettySize=auto;html=1;" edge="1" parent="WIyWlLk6GJQsqaUBKTNV-1" source="6Hut0MXTEwNpOhIjhO51-121" target="6Hut0MXTEwNpOhIjhO51-130">
          <mxGeometry relative="1" as="geometry">
            <Array as="points">
              <mxPoint x="-736" y="3000" />
              <mxPoint x="-495" y="3000" />
            </Array>
          </mxGeometry>
        </mxCell>
        <mxCell id="6Hut0MXTEwNpOhIjhO51-121" value="RTN true" style="shape=hexagon;perimeter=hexagonPerimeter2;whiteSpace=wrap;html=1;size=0.25" vertex="1" parent="WIyWlLk6GJQsqaUBKTNV-1">
          <mxGeometry x="-819.4" y="2930" width="166.25" height="30" as="geometry" />
        </mxCell>
        <mxCell id="6Hut0MXTEwNpOhIjhO51-132" style="edgeStyle=orthogonalEdgeStyle;rounded=0;orthogonalLoop=1;jettySize=auto;html=1;entryX=0.5;entryY=0;entryDx=0;entryDy=0;" edge="1" parent="WIyWlLk6GJQsqaUBKTNV-1" source="6Hut0MXTEwNpOhIjhO51-122" target="6Hut0MXTEwNpOhIjhO51-130">
          <mxGeometry relative="1" as="geometry">
            <Array as="points">
              <mxPoint x="-275" y="3000" />
              <mxPoint x="-495" y="3000" />
            </Array>
          </mxGeometry>
        </mxCell>
        <mxCell id="6Hut0MXTEwNpOhIjhO51-122" value="RTN false" style="shape=hexagon;perimeter=hexagonPerimeter2;whiteSpace=wrap;html=1;size=0.25" vertex="1" parent="WIyWlLk6GJQsqaUBKTNV-1">
          <mxGeometry x="-358.12" y="2930" width="166.25" height="30" as="geometry" />
        </mxCell>
        <mxCell id="6Hut0MXTEwNpOhIjhO51-124" style="edgeStyle=orthogonalEdgeStyle;rounded=0;orthogonalLoop=1;jettySize=auto;html=1;entryX=0.505;entryY=0.005;entryDx=0;entryDy=0;entryPerimeter=0;" edge="1" parent="WIyWlLk6GJQsqaUBKTNV-1" source="6Hut0MXTEwNpOhIjhO51-116" target="6Hut0MXTEwNpOhIjhO51-118">
          <mxGeometry relative="1" as="geometry" />
        </mxCell>
        <mxCell id="6Hut0MXTEwNpOhIjhO51-126" style="edgeStyle=orthogonalEdgeStyle;rounded=0;orthogonalLoop=1;jettySize=auto;html=1;entryX=0.482;entryY=-0.033;entryDx=0;entryDy=0;entryPerimeter=0;" edge="1" parent="WIyWlLk6GJQsqaUBKTNV-1" source="6Hut0MXTEwNpOhIjhO51-119" target="6Hut0MXTEwNpOhIjhO51-120">
          <mxGeometry relative="1" as="geometry" />
        </mxCell>
        <mxCell id="6Hut0MXTEwNpOhIjhO51-127" style="edgeStyle=orthogonalEdgeStyle;rounded=0;orthogonalLoop=1;jettySize=auto;html=1;entryX=0.522;entryY=-0.011;entryDx=0;entryDy=0;entryPerimeter=0;" edge="1" parent="WIyWlLk6GJQsqaUBKTNV-1" source="6Hut0MXTEwNpOhIjhO51-120" target="6Hut0MXTEwNpOhIjhO51-121">
          <mxGeometry relative="1" as="geometry" />
        </mxCell>
        <mxCell id="6Hut0MXTEwNpOhIjhO51-130" value="FIN" style="ellipse;whiteSpace=wrap;html=1;aspect=fixed;fillColor=#fff2cc;strokeColor=#d6b656;" vertex="1" parent="WIyWlLk6GJQsqaUBKTNV-1">
          <mxGeometry x="-520" y="3061" width="50" height="50" as="geometry" />
        </mxCell>
        <mxCell id="6Hut0MXTEwNpOhIjhO51-133" style="edgeStyle=orthogonalEdgeStyle;rounded=0;orthogonalLoop=1;jettySize=auto;html=1;entryX=0.498;entryY=-0.031;entryDx=0;entryDy=0;entryPerimeter=0;" edge="1" parent="WIyWlLk6GJQsqaUBKTNV-1" source="6Hut0MXTEwNpOhIjhO51-107" target="6Hut0MXTEwNpOhIjhO51-108">
          <mxGeometry relative="1" as="geometry" />
        </mxCell>
        <mxCell id="6Hut0MXTEwNpOhIjhO51-134" value="" style="edgeStyle=orthogonalEdgeStyle;rounded=0;orthogonalLoop=1;jettySize=auto;html=1;" edge="1" parent="WIyWlLk6GJQsqaUBKTNV-1" source="6Hut0MXTEwNpOhIjhO51-135">
          <mxGeometry relative="1" as="geometry">
            <mxPoint x="-509.18181818181796" y="3660" as="targetPoint" />
          </mxGeometry>
        </mxCell>
        <mxCell id="6Hut0MXTEwNpOhIjhO51-135" value="" style="rounded=0;whiteSpace=wrap;html=1;" vertex="1" parent="WIyWlLk6GJQsqaUBKTNV-1">
          <mxGeometry x="-708.1199999999999" y="3422.5" width="397.5" height="220" as="geometry" />
        </mxCell>
        <mxCell id="6Hut0MXTEwNpOhIjhO51-136" value="&lt;span style=&quot;font-size: 15px;&quot;&gt;&lt;b&gt;i&lt;br&gt;&lt;/b&gt;&lt;/span&gt;&lt;br&gt;&lt;br&gt;&lt;br&gt;&lt;b&gt;i = 0&amp;nbsp; &amp;nbsp; &amp;nbsp; i &amp;lt; longitud&amp;nbsp; &amp;nbsp; &amp;nbsp; &amp;nbsp; i++&lt;/b&gt;" style="ellipse;whiteSpace=wrap;html=1;aspect=fixed;fillColor=#dae8fc;strokeColor=#6c8ebf;" vertex="1" parent="WIyWlLk6GJQsqaUBKTNV-1">
          <mxGeometry x="-798" y="3437.5" width="185" height="185" as="geometry" />
        </mxCell>
        <mxCell id="6Hut0MXTEwNpOhIjhO51-137" value="" style="line;strokeWidth=1;html=1;perimeter=backbonePerimeter;points=[];outlineConnect=0;" vertex="1" parent="WIyWlLk6GJQsqaUBKTNV-1">
          <mxGeometry x="-798" y="3525" width="180" height="10" as="geometry" />
        </mxCell>
        <mxCell id="6Hut0MXTEwNpOhIjhO51-138" value="" style="line;strokeWidth=1;direction=south;html=1;" vertex="1" parent="WIyWlLk6GJQsqaUBKTNV-1">
          <mxGeometry x="-758" y="3530" width="10" height="80" as="geometry" />
        </mxCell>
        <mxCell id="6Hut0MXTEwNpOhIjhO51-139" value="" style="line;strokeWidth=1;direction=south;html=1;" vertex="1" parent="WIyWlLk6GJQsqaUBKTNV-1">
          <mxGeometry x="-668" y="3530" width="10" height="80" as="geometry" />
        </mxCell>
        <mxCell id="6Hut0MXTEwNpOhIjhO51-153" style="edgeStyle=orthogonalEdgeStyle;rounded=0;orthogonalLoop=1;jettySize=auto;html=1;entryX=0.5;entryY=0;entryDx=0;entryDy=0;" edge="1" parent="WIyWlLk6GJQsqaUBKTNV-1" target="6Hut0MXTEwNpOhIjhO51-144">
          <mxGeometry relative="1" as="geometry">
            <mxPoint x="-516.75" y="3270" as="sourcePoint" />
          </mxGeometry>
        </mxCell>
        <mxCell id="6Hut0MXTEwNpOhIjhO51-141" value="INICIO" style="ellipse;whiteSpace=wrap;html=1;aspect=fixed;fillColor=#fff2cc;strokeColor=#d6b656;" vertex="1" parent="WIyWlLk6GJQsqaUBKTNV-1">
          <mxGeometry x="-543" y="3220" width="50" height="50" as="geometry" />
        </mxCell>
        <mxCell id="6Hut0MXTEwNpOhIjhO51-144" value="&lt;span style=&quot;color: rgb(51, 51, 153); font-weight: bold; font-family: SFMono-Regular, Menlo, Monaco, Consolas, &amp;quot;Liberation Mono&amp;quot;, &amp;quot;Courier New&amp;quot;, monospace; font-size: 13.125px; text-align: left; background-color: initial;&quot;&gt;&lt;br&gt;void&amp;nbsp;&lt;/span&gt;&lt;span style=&quot;color: rgb(33, 37, 41); font-family: SFMono-Regular, Menlo, Monaco, Consolas, &amp;quot;Liberation Mono&amp;quot;, &amp;quot;Courier New&amp;quot;, monospace; font-size: 13.125px; text-align: left; background-color: initial;&quot;&gt;inicializarVectorEnFalse&lt;br&gt;&lt;br&gt;&lt;/span&gt;&lt;pre style=&quot;box-sizing: border-box; font-family: SFMono-Regular, Menlo, Monaco, Consolas, &amp;quot;Liberation Mono&amp;quot;, &amp;quot;Courier New&amp;quot;, monospace; font-size: 13.125px; margin-top: 0px; margin-bottom: 0px; overflow: auto; text-align: left; line-height: 16.4062px;&quot; id=&quot;yui_3_17_2_1_1719522832613_25&quot;&gt;&lt;span id=&quot;yui_3_17_2_1_1719522832613_33&quot; style=&quot;color: rgb(51, 51, 153); box-sizing: border-box; font-weight: bold;&quot;&gt;int&lt;/span&gt;&lt;font color=&quot;#212529&quot;&gt; longitud , &lt;/font&gt;&lt;b style=&quot;&quot;&gt;&lt;font color=&quot;#333399&quot;&gt;bool&lt;/font&gt;&lt;/b&gt;&lt;span style=&quot;color: rgb(33, 37, 41); background-color: initial; white-space: normal;&quot;&gt; vect[]&lt;/span&gt;&lt;/pre&gt;" style="shape=hexagon;perimeter=hexagonPerimeter2;whiteSpace=wrap;html=1;size=0.25" vertex="1" parent="WIyWlLk6GJQsqaUBKTNV-1">
          <mxGeometry x="-726.75" y="3304" width="420" height="66" as="geometry" />
        </mxCell>
        <mxCell id="6Hut0MXTEwNpOhIjhO51-148" value="" style="line;strokeWidth=1;html=1;perimeter=backbonePerimeter;points=[];outlineConnect=0;" vertex="1" parent="WIyWlLk6GJQsqaUBKTNV-1">
          <mxGeometry x="-725.3699999999999" y="3332" width="414.75" height="10" as="geometry" />
        </mxCell>
        <mxCell id="6Hut0MXTEwNpOhIjhO51-150" value="" style="line;strokeWidth=1;direction=south;html=1;" vertex="1" parent="WIyWlLk6GJQsqaUBKTNV-1">
          <mxGeometry x="-426.1199999999999" y="3336" width="10" height="34" as="geometry" />
        </mxCell>
        <mxCell id="6Hut0MXTEwNpOhIjhO51-152" style="edgeStyle=orthogonalEdgeStyle;rounded=0;orthogonalLoop=1;jettySize=auto;html=1;entryX=0.482;entryY=-0.008;entryDx=0;entryDy=0;entryPerimeter=0;" edge="1" parent="WIyWlLk6GJQsqaUBKTNV-1" source="6Hut0MXTEwNpOhIjhO51-144" target="6Hut0MXTEwNpOhIjhO51-135">
          <mxGeometry relative="1" as="geometry" />
        </mxCell>
        <mxCell id="6Hut0MXTEwNpOhIjhO51-154" value="vect [ i ] = false" style="rounded=0;whiteSpace=wrap;html=1;fillColor=#ffe6cc;strokeColor=#d79b00;" vertex="1" parent="WIyWlLk6GJQsqaUBKTNV-1">
          <mxGeometry x="-564.25" y="3505" width="110" height="30" as="geometry" />
        </mxCell>
        <mxCell id="6Hut0MXTEwNpOhIjhO51-155" value="FIN" style="ellipse;whiteSpace=wrap;html=1;aspect=fixed;fillColor=#fff2cc;strokeColor=#d6b656;" vertex="1" parent="WIyWlLk6GJQsqaUBKTNV-1">
          <mxGeometry x="-534.25" y="3660" width="50" height="50" as="geometry" />
        </mxCell>
        <mxCell id="6Hut0MXTEwNpOhIjhO51-157" value="" style="edgeStyle=orthogonalEdgeStyle;rounded=0;orthogonalLoop=1;jettySize=auto;html=1;" edge="1" parent="WIyWlLk6GJQsqaUBKTNV-1" source="6Hut0MXTEwNpOhIjhO51-158">
          <mxGeometry relative="1" as="geometry">
            <mxPoint x="-499.18181818181796" y="4190" as="targetPoint" />
          </mxGeometry>
        </mxCell>
        <mxCell id="6Hut0MXTEwNpOhIjhO51-158" value="" style="rounded=0;whiteSpace=wrap;html=1;" vertex="1" parent="WIyWlLk6GJQsqaUBKTNV-1">
          <mxGeometry x="-698.1199999999999" y="3940" width="397.5" height="220" as="geometry" />
        </mxCell>
        <mxCell id="6Hut0MXTEwNpOhIjhO51-161" style="edgeStyle=orthogonalEdgeStyle;rounded=0;orthogonalLoop=1;jettySize=auto;html=1;entryX=0.5;entryY=0;entryDx=0;entryDy=0;" edge="1" parent="WIyWlLk6GJQsqaUBKTNV-1" source="6Hut0MXTEwNpOhIjhO51-162" target="6Hut0MXTEwNpOhIjhO51-163">
          <mxGeometry relative="1" as="geometry" />
        </mxCell>
        <mxCell id="6Hut0MXTEwNpOhIjhO51-162" value="INICIO" style="ellipse;whiteSpace=wrap;html=1;aspect=fixed;fillColor=#fff2cc;strokeColor=#d6b656;" vertex="1" parent="WIyWlLk6GJQsqaUBKTNV-1">
          <mxGeometry x="-531.75" y="3750" width="50" height="50" as="geometry" />
        </mxCell>
        <mxCell id="6Hut0MXTEwNpOhIjhO51-163" value="&lt;span style=&quot;color: rgb(51, 51, 153); font-weight: bold; font-family: SFMono-Regular, Menlo, Monaco, Consolas, &amp;quot;Liberation Mono&amp;quot;, &amp;quot;Courier New&amp;quot;, monospace; font-size: 13.125px; text-align: left; background-color: initial;&quot;&gt;&lt;br&gt;void&amp;nbsp;&lt;/span&gt;&lt;span style=&quot;color: rgb(33, 37, 41); font-family: SFMono-Regular, Menlo, Monaco, Consolas, &amp;quot;Liberation Mono&amp;quot;, &amp;quot;Courier New&amp;quot;, monospace; font-size: 13.125px; text-align: left; background-color: initial;&quot;&gt;inicializarVectorEnCero&lt;br&gt;&lt;br&gt;&lt;/span&gt;&lt;pre style=&quot;box-sizing: border-box; font-family: SFMono-Regular, Menlo, Monaco, Consolas, &amp;quot;Liberation Mono&amp;quot;, &amp;quot;Courier New&amp;quot;, monospace; font-size: 13.125px; margin-top: 0px; margin-bottom: 0px; overflow: auto; text-align: left; line-height: 16.4062px;&quot; id=&quot;yui_3_17_2_1_1719522832613_25&quot;&gt;&lt;span style=&quot;color: rgb(33, 37, 41);&quot;&gt;&lt;span id=&quot;yui_3_17_2_1_1719522832613_33&quot; style=&quot;box-sizing: border-box; color: rgb(51, 51, 153); font-weight: bold;&quot;&gt;int&lt;/span&gt; longitud , &lt;/span&gt;&lt;font color=&quot;#333399&quot;&gt;&lt;b&gt;int&lt;/b&gt;&lt;/font&gt;&lt;span style=&quot;color: rgb(33, 37, 41); background-color: initial; white-space: normal;&quot;&gt; vect[]&lt;/span&gt;&lt;/pre&gt;" style="shape=hexagon;perimeter=hexagonPerimeter2;whiteSpace=wrap;html=1;size=0.25" vertex="1" parent="WIyWlLk6GJQsqaUBKTNV-1">
          <mxGeometry x="-716.75" y="3834" width="420" height="66" as="geometry" />
        </mxCell>
        <mxCell id="6Hut0MXTEwNpOhIjhO51-164" value="" style="line;strokeWidth=1;html=1;perimeter=backbonePerimeter;points=[];outlineConnect=0;" vertex="1" parent="WIyWlLk6GJQsqaUBKTNV-1">
          <mxGeometry x="-715.3699999999999" y="3862" width="414.75" height="10" as="geometry" />
        </mxCell>
        <mxCell id="6Hut0MXTEwNpOhIjhO51-165" value="" style="line;strokeWidth=1;direction=south;html=1;" vertex="1" parent="WIyWlLk6GJQsqaUBKTNV-1">
          <mxGeometry x="-416.1199999999999" y="3866" width="10" height="34" as="geometry" />
        </mxCell>
        <mxCell id="6Hut0MXTEwNpOhIjhO51-166" style="edgeStyle=orthogonalEdgeStyle;rounded=0;orthogonalLoop=1;jettySize=auto;html=1;entryX=0.482;entryY=-0.008;entryDx=0;entryDy=0;entryPerimeter=0;" edge="1" parent="WIyWlLk6GJQsqaUBKTNV-1" source="6Hut0MXTEwNpOhIjhO51-163" target="6Hut0MXTEwNpOhIjhO51-158">
          <mxGeometry relative="1" as="geometry" />
        </mxCell>
        <mxCell id="6Hut0MXTEwNpOhIjhO51-167" value="vect [ i ] = 0" style="rounded=0;whiteSpace=wrap;html=1;fillColor=#ffe6cc;strokeColor=#d79b00;" vertex="1" parent="WIyWlLk6GJQsqaUBKTNV-1">
          <mxGeometry x="-554.25" y="4035" width="110" height="30" as="geometry" />
        </mxCell>
        <mxCell id="6Hut0MXTEwNpOhIjhO51-168" value="FIN" style="ellipse;whiteSpace=wrap;html=1;aspect=fixed;fillColor=#fff2cc;strokeColor=#d6b656;" vertex="1" parent="WIyWlLk6GJQsqaUBKTNV-1">
          <mxGeometry x="-524.25" y="4190" width="50" height="50" as="geometry" />
        </mxCell>
        <mxCell id="6Hut0MXTEwNpOhIjhO51-169" value="&lt;span style=&quot;font-size: 15px;&quot;&gt;&lt;b&gt;i&lt;br&gt;&lt;/b&gt;&lt;/span&gt;&lt;br&gt;&lt;br&gt;&lt;br&gt;&lt;b&gt;i = 0&amp;nbsp; &amp;nbsp; &amp;nbsp; i &amp;lt; longitud&amp;nbsp; &amp;nbsp; &amp;nbsp; &amp;nbsp; i++&lt;/b&gt;" style="ellipse;whiteSpace=wrap;html=1;aspect=fixed;fillColor=#dae8fc;strokeColor=#6c8ebf;" vertex="1" parent="WIyWlLk6GJQsqaUBKTNV-1">
          <mxGeometry x="-793" y="3964" width="185" height="185" as="geometry" />
        </mxCell>
        <mxCell id="6Hut0MXTEwNpOhIjhO51-170" value="" style="line;strokeWidth=1;html=1;perimeter=backbonePerimeter;points=[];outlineConnect=0;" vertex="1" parent="WIyWlLk6GJQsqaUBKTNV-1">
          <mxGeometry x="-790.5" y="4050" width="180" height="10" as="geometry" />
        </mxCell>
        <mxCell id="6Hut0MXTEwNpOhIjhO51-171" value="" style="line;strokeWidth=1;direction=south;html=1;" vertex="1" parent="WIyWlLk6GJQsqaUBKTNV-1">
          <mxGeometry x="-750.5" y="4055" width="10" height="80" as="geometry" />
        </mxCell>
        <mxCell id="6Hut0MXTEwNpOhIjhO51-172" value="" style="line;strokeWidth=1;direction=south;html=1;" vertex="1" parent="WIyWlLk6GJQsqaUBKTNV-1">
          <mxGeometry x="-660.5" y="4055" width="10" height="80" as="geometry" />
        </mxCell>
        <mxCell id="6Hut0MXTEwNpOhIjhO51-210" style="edgeStyle=orthogonalEdgeStyle;rounded=0;orthogonalLoop=1;jettySize=auto;html=1;entryX=0.5;entryY=0;entryDx=0;entryDy=0;" edge="1" parent="WIyWlLk6GJQsqaUBKTNV-1" source="6Hut0MXTEwNpOhIjhO51-174" target="6Hut0MXTEwNpOhIjhO51-182">
          <mxGeometry relative="1" as="geometry" />
        </mxCell>
        <mxCell id="6Hut0MXTEwNpOhIjhO51-174" value="" style="rounded=0;whiteSpace=wrap;html=1;" vertex="1" parent="WIyWlLk6GJQsqaUBKTNV-1">
          <mxGeometry x="-638.12" y="4707.5" width="433.15" height="432.5" as="geometry" />
        </mxCell>
        <mxCell id="6Hut0MXTEwNpOhIjhO51-175" style="edgeStyle=orthogonalEdgeStyle;rounded=0;orthogonalLoop=1;jettySize=auto;html=1;entryX=0.5;entryY=0;entryDx=0;entryDy=0;" edge="1" parent="WIyWlLk6GJQsqaUBKTNV-1" source="6Hut0MXTEwNpOhIjhO51-176" target="6Hut0MXTEwNpOhIjhO51-177">
          <mxGeometry relative="1" as="geometry" />
        </mxCell>
        <mxCell id="6Hut0MXTEwNpOhIjhO51-176" value="INICIO" style="ellipse;whiteSpace=wrap;html=1;aspect=fixed;fillColor=#fff2cc;strokeColor=#d6b656;" vertex="1" parent="WIyWlLk6GJQsqaUBKTNV-1">
          <mxGeometry x="-460" y="4350" width="50" height="50" as="geometry" />
        </mxCell>
        <mxCell id="6Hut0MXTEwNpOhIjhO51-187" style="edgeStyle=orthogonalEdgeStyle;rounded=0;orthogonalLoop=1;jettySize=auto;html=1;entryX=0.5;entryY=0;entryDx=0;entryDy=0;" edge="1" parent="WIyWlLk6GJQsqaUBKTNV-1" source="6Hut0MXTEwNpOhIjhO51-177" target="6Hut0MXTEwNpOhIjhO51-181">
          <mxGeometry relative="1" as="geometry" />
        </mxCell>
        <mxCell id="6Hut0MXTEwNpOhIjhO51-177" value="&lt;span style=&quot;color: rgb(51, 51, 153); font-weight: bold; font-family: SFMono-Regular, Menlo, Monaco, Consolas, &amp;quot;Liberation Mono&amp;quot;, &amp;quot;Courier New&amp;quot;, monospace; font-size: 13.125px; text-align: left; background-color: initial;&quot;&gt;&lt;br&gt;void &lt;/span&gt;&lt;span style=&quot;font-family: SFMono-Regular, Menlo, Monaco, Consolas, &amp;quot;Liberation Mono&amp;quot;, &amp;quot;Courier New&amp;quot;, monospace; font-size: 13.125px; text-align: left; background-color: initial;&quot;&gt;generarManoAleatoria&lt;/span&gt;&lt;span style=&quot;color: rgb(33, 37, 41); font-family: SFMono-Regular, Menlo, Monaco, Consolas, &amp;quot;Liberation Mono&amp;quot;, &amp;quot;Courier New&amp;quot;, monospace; font-size: 13.125px; text-align: left; background-color: initial;&quot;&gt;&lt;br&gt;&lt;br&gt;&lt;/span&gt;&lt;pre style=&quot;box-sizing: border-box; font-family: SFMono-Regular, Menlo, Monaco, Consolas, &amp;quot;Liberation Mono&amp;quot;, &amp;quot;Courier New&amp;quot;, monospace; font-size: 13.125px; margin-top: 0px; margin-bottom: 0px; overflow: auto; text-align: left; line-height: 16.4062px;&quot; id=&quot;yui_3_17_2_1_1719522832613_25&quot;&gt;&lt;span style=&quot;color: rgb(33, 37, 41);&quot;&gt;&lt;span id=&quot;yui_3_17_2_1_1719522832613_33&quot; style=&quot;box-sizing: border-box; color: rgb(51, 51, 153); font-weight: bold;&quot;&gt;int&lt;/span&gt; vectorPalo[] , &lt;/span&gt;&lt;font color=&quot;#333399&quot;&gt;&lt;b&gt;int&lt;/b&gt;&lt;/font&gt;&lt;span style=&quot;background-color: initial; white-space: normal;&quot;&gt;&lt;font color=&quot;#212529&quot;&gt; vectorMano[],&lt;/font&gt;&lt;br&gt;&lt;b style=&quot;&quot;&gt;&lt;font color=&quot;#333399&quot;&gt;bool&lt;/font&gt;&lt;/b&gt;&lt;font color=&quot;#212529&quot;&gt; cartasSeleccionadas[]&lt;/font&gt;&lt;/span&gt;&lt;/pre&gt;" style="shape=hexagon;perimeter=hexagonPerimeter2;whiteSpace=wrap;html=1;size=0.25" vertex="1" parent="WIyWlLk6GJQsqaUBKTNV-1">
          <mxGeometry x="-730" y="4434" width="590" height="86" as="geometry" />
        </mxCell>
        <mxCell id="6Hut0MXTEwNpOhIjhO51-178" value="" style="line;strokeWidth=1;html=1;perimeter=backbonePerimeter;points=[];outlineConnect=0;" vertex="1" parent="WIyWlLk6GJQsqaUBKTNV-1">
          <mxGeometry x="-730" y="4472" width="590" height="10" as="geometry" />
        </mxCell>
        <mxCell id="6Hut0MXTEwNpOhIjhO51-179" value="" style="line;strokeWidth=1;direction=south;html=1;" vertex="1" parent="WIyWlLk6GJQsqaUBKTNV-1">
          <mxGeometry x="-296.75" y="4480" width="10" height="40" as="geometry" />
        </mxCell>
        <mxCell id="6Hut0MXTEwNpOhIjhO51-188" style="edgeStyle=orthogonalEdgeStyle;rounded=0;orthogonalLoop=1;jettySize=auto;html=1;entryX=0.5;entryY=0;entryDx=0;entryDy=0;" edge="1" parent="WIyWlLk6GJQsqaUBKTNV-1" source="6Hut0MXTEwNpOhIjhO51-181" target="6Hut0MXTEwNpOhIjhO51-185">
          <mxGeometry relative="1" as="geometry" />
        </mxCell>
        <mxCell id="6Hut0MXTEwNpOhIjhO51-181" value="indice" style="rounded=0;whiteSpace=wrap;html=1;fillColor=#ffe6cc;strokeColor=#d79b00;" vertex="1" parent="WIyWlLk6GJQsqaUBKTNV-1">
          <mxGeometry x="-490.25" y="4550" width="110" height="30" as="geometry" />
        </mxCell>
        <mxCell id="6Hut0MXTEwNpOhIjhO51-182" value="FIN" style="ellipse;whiteSpace=wrap;html=1;aspect=fixed;fillColor=#fff2cc;strokeColor=#d6b656;" vertex="1" parent="WIyWlLk6GJQsqaUBKTNV-1">
          <mxGeometry x="-446.54" y="5180" width="50" height="50" as="geometry" />
        </mxCell>
        <mxCell id="6Hut0MXTEwNpOhIjhO51-189" style="edgeStyle=orthogonalEdgeStyle;rounded=0;orthogonalLoop=1;jettySize=auto;html=1;" edge="1" parent="WIyWlLk6GJQsqaUBKTNV-1" source="6Hut0MXTEwNpOhIjhO51-185">
          <mxGeometry relative="1" as="geometry">
            <mxPoint x="-435" y="4650" as="targetPoint" />
            <Array as="points">
              <mxPoint x="-435" y="4640" />
              <mxPoint x="-435" y="4640" />
            </Array>
          </mxGeometry>
        </mxCell>
        <mxCell id="6Hut0MXTEwNpOhIjhO51-185" value="valor" style="rounded=0;whiteSpace=wrap;html=1;fillColor=#ffe6cc;strokeColor=#d79b00;" vertex="1" parent="WIyWlLk6GJQsqaUBKTNV-1">
          <mxGeometry x="-489.75" y="4600" width="110" height="30" as="geometry" />
        </mxCell>
        <mxCell id="6Hut0MXTEwNpOhIjhO51-186" value="palo" style="rounded=0;whiteSpace=wrap;html=1;fillColor=#ffe6cc;strokeColor=#d79b00;" vertex="1" parent="WIyWlLk6GJQsqaUBKTNV-1">
          <mxGeometry x="-489.75" y="4650" width="110" height="30" as="geometry" />
        </mxCell>
        <mxCell id="6Hut0MXTEwNpOhIjhO51-190" style="edgeStyle=orthogonalEdgeStyle;rounded=0;orthogonalLoop=1;jettySize=auto;html=1;entryX=0.471;entryY=0.005;entryDx=0;entryDy=0;entryPerimeter=0;" edge="1" parent="WIyWlLk6GJQsqaUBKTNV-1" source="6Hut0MXTEwNpOhIjhO51-186" target="6Hut0MXTEwNpOhIjhO51-174">
          <mxGeometry relative="1" as="geometry">
            <Array as="points">
              <mxPoint x="-435" y="4700" />
              <mxPoint x="-435" y="4700" />
              <mxPoint x="-435" y="4710" />
              <mxPoint x="-434" y="4710" />
            </Array>
          </mxGeometry>
        </mxCell>
        <mxCell id="6Hut0MXTEwNpOhIjhO51-191" value="&lt;span style=&quot;font-size: 15px;&quot;&gt;&lt;b&gt;i&lt;br&gt;&lt;/b&gt;&lt;/span&gt;&lt;br&gt;&lt;br&gt;&lt;br&gt;&lt;b&gt;i = 0&amp;nbsp; &amp;nbsp; &amp;nbsp; i &amp;lt; 5&amp;nbsp; &amp;nbsp; &amp;nbsp; &amp;nbsp; i++&lt;/b&gt;" style="ellipse;whiteSpace=wrap;html=1;aspect=fixed;fillColor=#dae8fc;strokeColor=#6c8ebf;" vertex="1" parent="WIyWlLk6GJQsqaUBKTNV-1">
          <mxGeometry x="-725.37" y="4747.94" width="149.12" height="149.12" as="geometry" />
        </mxCell>
        <mxCell id="6Hut0MXTEwNpOhIjhO51-192" value="" style="line;strokeWidth=1;html=1;perimeter=backbonePerimeter;points=[];outlineConnect=0;" vertex="1" parent="WIyWlLk6GJQsqaUBKTNV-1">
          <mxGeometry x="-727.5" y="4817.5" width="150.5" height="10" as="geometry" />
        </mxCell>
        <mxCell id="6Hut0MXTEwNpOhIjhO51-193" value="" style="line;strokeWidth=1;direction=south;html=1;" vertex="1" parent="WIyWlLk6GJQsqaUBKTNV-1">
          <mxGeometry x="-678" y="4825" width="10" height="62.5" as="geometry" />
        </mxCell>
        <mxCell id="6Hut0MXTEwNpOhIjhO51-194" value="" style="line;strokeWidth=1;direction=south;html=1;" vertex="1" parent="WIyWlLk6GJQsqaUBKTNV-1">
          <mxGeometry x="-630" y="4825" width="10" height="62.5" as="geometry" />
        </mxCell>
        <mxCell id="6Hut0MXTEwNpOhIjhO51-195" value="" style="rounded=0;whiteSpace=wrap;html=1;" vertex="1" parent="WIyWlLk6GJQsqaUBKTNV-1">
          <mxGeometry x="-570" y="4727.5" width="280" height="190" as="geometry" />
        </mxCell>
        <mxCell id="6Hut0MXTEwNpOhIjhO51-199" value="yaSalio( indice, cartasSeleccionadas)" style="rounded=0;whiteSpace=wrap;html=1;fillColor=#f5f5f5;fontColor=#333333;strokeColor=#666666;" vertex="1" parent="WIyWlLk6GJQsqaUBKTNV-1">
          <mxGeometry x="-570" y="4917.5" width="280" height="24" as="geometry" />
        </mxCell>
        <mxCell id="6Hut0MXTEwNpOhIjhO51-204" style="edgeStyle=orthogonalEdgeStyle;rounded=0;orthogonalLoop=1;jettySize=auto;html=1;entryX=0.5;entryY=0;entryDx=0;entryDy=0;" edge="1" parent="WIyWlLk6GJQsqaUBKTNV-1" source="6Hut0MXTEwNpOhIjhO51-200" target="6Hut0MXTEwNpOhIjhO51-201">
          <mxGeometry relative="1" as="geometry" />
        </mxCell>
        <mxCell id="6Hut0MXTEwNpOhIjhO51-200" value="valor = aleatorioEntre (0 , 4)" style="rounded=0;whiteSpace=wrap;html=1;fillColor=#ffe6cc;strokeColor=#d79b00;" vertex="1" parent="WIyWlLk6GJQsqaUBKTNV-1">
          <mxGeometry x="-530.25" y="4757.5" width="190" height="30" as="geometry" />
        </mxCell>
        <mxCell id="6Hut0MXTEwNpOhIjhO51-205" style="edgeStyle=orthogonalEdgeStyle;rounded=0;orthogonalLoop=1;jettySize=auto;html=1;entryX=0.5;entryY=0;entryDx=0;entryDy=0;" edge="1" parent="WIyWlLk6GJQsqaUBKTNV-1" source="6Hut0MXTEwNpOhIjhO51-201" target="6Hut0MXTEwNpOhIjhO51-202">
          <mxGeometry relative="1" as="geometry" />
        </mxCell>
        <mxCell id="6Hut0MXTEwNpOhIjhO51-201" value="palo = aleatorioEntre (0 , 3)" style="rounded=0;whiteSpace=wrap;html=1;fillColor=#ffe6cc;strokeColor=#d79b00;" vertex="1" parent="WIyWlLk6GJQsqaUBKTNV-1">
          <mxGeometry x="-529.75" y="4807.5" width="190" height="30" as="geometry" />
        </mxCell>
        <mxCell id="6Hut0MXTEwNpOhIjhO51-202" value="indice = valor * 4 + palo" style="rounded=0;whiteSpace=wrap;html=1;fillColor=#ffe6cc;strokeColor=#d79b00;" vertex="1" parent="WIyWlLk6GJQsqaUBKTNV-1">
          <mxGeometry x="-529.75" y="4857.5" width="190" height="30" as="geometry" />
        </mxCell>
        <mxCell id="6Hut0MXTEwNpOhIjhO51-207" value="cartasSeleccionadas [indice] = true" style="rounded=0;whiteSpace=wrap;html=1;fillColor=#ffe6cc;strokeColor=#d79b00;" vertex="1" parent="WIyWlLk6GJQsqaUBKTNV-1">
          <mxGeometry x="-556.25" y="4970" width="240" height="30" as="geometry" />
        </mxCell>
        <mxCell id="6Hut0MXTEwNpOhIjhO51-208" value="vectorMano [ i ] = valor" style="rounded=0;whiteSpace=wrap;html=1;fillColor=#ffe6cc;strokeColor=#d79b00;" vertex="1" parent="WIyWlLk6GJQsqaUBKTNV-1">
          <mxGeometry x="-555.25" y="5020" width="240" height="30" as="geometry" />
        </mxCell>
        <mxCell id="6Hut0MXTEwNpOhIjhO51-209" value="vectorPalo [ i ] = palo" style="rounded=0;whiteSpace=wrap;html=1;fillColor=#ffe6cc;strokeColor=#d79b00;" vertex="1" parent="WIyWlLk6GJQsqaUBKTNV-1">
          <mxGeometry x="-554.25" y="5070" width="240" height="30" as="geometry" />
        </mxCell>
        <mxCell id="6Hut0MXTEwNpOhIjhO51-211" style="edgeStyle=orthogonalEdgeStyle;rounded=0;orthogonalLoop=1;jettySize=auto;html=1;entryX=0.5;entryY=0;entryDx=0;entryDy=0;" edge="1" parent="WIyWlLk6GJQsqaUBKTNV-1" source="6Hut0MXTEwNpOhIjhO51-212" target="6Hut0MXTEwNpOhIjhO51-213">
          <mxGeometry relative="1" as="geometry" />
        </mxCell>
        <mxCell id="6Hut0MXTEwNpOhIjhO51-212" value="INICIO" style="ellipse;whiteSpace=wrap;html=1;aspect=fixed;fillColor=#fff2cc;strokeColor=#d6b656;" vertex="1" parent="WIyWlLk6GJQsqaUBKTNV-1">
          <mxGeometry x="-459.75" y="5370" width="50" height="50" as="geometry" />
        </mxCell>
        <mxCell id="6Hut0MXTEwNpOhIjhO51-219" style="edgeStyle=orthogonalEdgeStyle;rounded=0;orthogonalLoop=1;jettySize=auto;html=1;entryX=0.5;entryY=0;entryDx=0;entryDy=0;" edge="1" parent="WIyWlLk6GJQsqaUBKTNV-1" source="6Hut0MXTEwNpOhIjhO51-213" target="6Hut0MXTEwNpOhIjhO51-218">
          <mxGeometry relative="1" as="geometry" />
        </mxCell>
        <mxCell id="6Hut0MXTEwNpOhIjhO51-213" value="&lt;span style=&quot;color: rgb(51, 51, 153); font-weight: bold; font-family: SFMono-Regular, Menlo, Monaco, Consolas, &amp;quot;Liberation Mono&amp;quot;, &amp;quot;Courier New&amp;quot;, monospace; font-size: 13.125px; text-align: left; background-color: initial;&quot;&gt;bo&lt;/span&gt;&lt;span style=&quot;font-weight: bold; font-family: SFMono-Regular, Menlo, Monaco, Consolas, &amp;quot;Liberation Mono&amp;quot;, &amp;quot;Courier New&amp;quot;, monospace; font-size: 13.125px; text-align: left; background-color: initial;&quot;&gt;&lt;font color=&quot;#333399&quot;&gt;ol&lt;/font&gt;&lt;/span&gt;&amp;nbsp;yaSalio&lt;br&gt;&lt;br&gt;&lt;pre style=&quot;box-sizing: border-box; font-family: SFMono-Regular, Menlo, Monaco, Consolas, &amp;quot;Liberation Mono&amp;quot;, &amp;quot;Courier New&amp;quot;, monospace; font-size: 13.125px; margin-top: 0px; margin-bottom: 0px; overflow: auto; text-align: left; line-height: 16.4062px;&quot; id=&quot;yui_3_17_2_1_1719522832613_25&quot;&gt;&lt;span style=&quot;color: rgb(51, 51, 153); box-sizing: border-box; font-weight: bold;&quot; id=&quot;yui_3_17_2_1_1719522832613_33&quot;&gt;int&lt;/span&gt;&lt;font color=&quot;#212529&quot;&gt; indice&lt;br&gt;&lt;/font&gt;&lt;font color=&quot;#333399&quot;&gt;&lt;b&gt;bool&lt;/b&gt;&lt;/font&gt;&lt;span style=&quot;color: rgb(33, 37, 41);&quot;&gt; cartasSeleccionadas[]  &lt;/span&gt;&lt;/pre&gt;" style="shape=hexagon;perimeter=hexagonPerimeter2;whiteSpace=wrap;html=1;size=0.25" vertex="1" parent="WIyWlLk6GJQsqaUBKTNV-1">
          <mxGeometry x="-660" y="5460" width="450" height="70" as="geometry" />
        </mxCell>
        <mxCell id="6Hut0MXTEwNpOhIjhO51-215" value="" style="line;strokeWidth=1;html=1;perimeter=backbonePerimeter;points=[];outlineConnect=0;" vertex="1" parent="WIyWlLk6GJQsqaUBKTNV-1">
          <mxGeometry x="-658" y="5490" width="438" height="10" as="geometry" />
        </mxCell>
        <mxCell id="6Hut0MXTEwNpOhIjhO51-216" value="" style="line;strokeWidth=1;direction=south;html=1;" vertex="1" parent="WIyWlLk6GJQsqaUBKTNV-1">
          <mxGeometry x="-340" y="5500" width="10" height="30" as="geometry" />
        </mxCell>
        <mxCell id="6Hut0MXTEwNpOhIjhO51-221" style="edgeStyle=orthogonalEdgeStyle;rounded=0;orthogonalLoop=1;jettySize=auto;html=1;entryX=0.5;entryY=0;entryDx=0;entryDy=0;" edge="1" parent="WIyWlLk6GJQsqaUBKTNV-1" source="6Hut0MXTEwNpOhIjhO51-218" target="6Hut0MXTEwNpOhIjhO51-220">
          <mxGeometry relative="1" as="geometry" />
        </mxCell>
        <mxCell id="6Hut0MXTEwNpOhIjhO51-218" value="RTN&amp;nbsp;&lt;span style=&quot;color: rgb(33, 37, 41); font-family: SFMono-Regular, Menlo, Monaco, Consolas, &amp;quot;Liberation Mono&amp;quot;, &amp;quot;Courier New&amp;quot;, monospace; font-size: 13.125px; text-align: left; background-color: initial;&quot;&gt;cartasSeleccionadas [indice]&lt;/span&gt;" style="shape=hexagon;perimeter=hexagonPerimeter2;whiteSpace=wrap;html=1;size=0.25" vertex="1" parent="WIyWlLk6GJQsqaUBKTNV-1">
          <mxGeometry x="-600.25" y="5570" width="330" height="60" as="geometry" />
        </mxCell>
        <mxCell id="6Hut0MXTEwNpOhIjhO51-220" value="FIN" style="ellipse;whiteSpace=wrap;html=1;aspect=fixed;fillColor=#fff2cc;strokeColor=#d6b656;" vertex="1" parent="WIyWlLk6GJQsqaUBKTNV-1">
          <mxGeometry x="-459.75" y="5660" width="50" height="50" as="geometry" />
        </mxCell>
        <mxCell id="6Hut0MXTEwNpOhIjhO51-222" style="edgeStyle=orthogonalEdgeStyle;rounded=0;orthogonalLoop=1;jettySize=auto;html=1;entryX=0.5;entryY=0;entryDx=0;entryDy=0;" edge="1" parent="WIyWlLk6GJQsqaUBKTNV-1" source="6Hut0MXTEwNpOhIjhO51-223" target="6Hut0MXTEwNpOhIjhO51-225">
          <mxGeometry relative="1" as="geometry" />
        </mxCell>
        <mxCell id="6Hut0MXTEwNpOhIjhO51-223" value="INICIO" style="ellipse;whiteSpace=wrap;html=1;aspect=fixed;fillColor=#fff2cc;strokeColor=#d6b656;" vertex="1" parent="WIyWlLk6GJQsqaUBKTNV-1">
          <mxGeometry x="-457.75" y="5800" width="50" height="50" as="geometry" />
        </mxCell>
        <mxCell id="6Hut0MXTEwNpOhIjhO51-224" style="edgeStyle=orthogonalEdgeStyle;rounded=0;orthogonalLoop=1;jettySize=auto;html=1;entryX=0.5;entryY=0;entryDx=0;entryDy=0;" edge="1" parent="WIyWlLk6GJQsqaUBKTNV-1" source="6Hut0MXTEwNpOhIjhO51-225" target="6Hut0MXTEwNpOhIjhO51-229">
          <mxGeometry relative="1" as="geometry" />
        </mxCell>
        <mxCell id="6Hut0MXTEwNpOhIjhO51-225" value="&lt;span style=&quot;color: rgb(51, 51, 153); font-weight: bold; font-family: SFMono-Regular, Menlo, Monaco, Consolas, &amp;quot;Liberation Mono&amp;quot;, &amp;quot;Courier New&amp;quot;, monospace; font-size: 13.125px; text-align: left; background-color: initial;&quot;&gt;bo&lt;/span&gt;&lt;span style=&quot;font-weight: bold; font-family: SFMono-Regular, Menlo, Monaco, Consolas, &amp;quot;Liberation Mono&amp;quot;, &amp;quot;Courier New&amp;quot;, monospace; font-size: 13.125px; text-align: left; background-color: initial;&quot;&gt;&lt;font color=&quot;#333399&quot;&gt;ol&lt;/font&gt;&lt;/span&gt;&amp;nbsp;yaSalio&lt;br&gt;&lt;br&gt;&lt;pre style=&quot;box-sizing: border-box; font-family: SFMono-Regular, Menlo, Monaco, Consolas, &amp;quot;Liberation Mono&amp;quot;, &amp;quot;Courier New&amp;quot;, monospace; font-size: 13.125px; margin-top: 0px; margin-bottom: 0px; overflow: auto; text-align: left; line-height: 16.4062px;&quot; id=&quot;yui_3_17_2_1_1719522832613_25&quot;&gt;&lt;span style=&quot;color: rgb(51, 51, 153); box-sizing: border-box; font-weight: bold;&quot; id=&quot;yui_3_17_2_1_1719522832613_33&quot;&gt;int&lt;/span&gt;&lt;font color=&quot;#212529&quot;&gt; indice&lt;br&gt;&lt;/font&gt;&lt;font color=&quot;#333399&quot;&gt;&lt;b&gt;bool&lt;/b&gt;&lt;/font&gt;&lt;span style=&quot;color: rgb(33, 37, 41);&quot;&gt; cartasSeleccionadas[]  &lt;/span&gt;&lt;/pre&gt;" style="shape=hexagon;perimeter=hexagonPerimeter2;whiteSpace=wrap;html=1;size=0.25" vertex="1" parent="WIyWlLk6GJQsqaUBKTNV-1">
          <mxGeometry x="-658" y="5890" width="450" height="70" as="geometry" />
        </mxCell>
        <mxCell id="6Hut0MXTEwNpOhIjhO51-226" value="" style="line;strokeWidth=1;html=1;perimeter=backbonePerimeter;points=[];outlineConnect=0;" vertex="1" parent="WIyWlLk6GJQsqaUBKTNV-1">
          <mxGeometry x="-656" y="5920" width="438" height="10" as="geometry" />
        </mxCell>
        <mxCell id="6Hut0MXTEwNpOhIjhO51-227" value="" style="line;strokeWidth=1;direction=south;html=1;" vertex="1" parent="WIyWlLk6GJQsqaUBKTNV-1">
          <mxGeometry x="-338" y="5930" width="10" height="30" as="geometry" />
        </mxCell>
        <mxCell id="6Hut0MXTEwNpOhIjhO51-228" style="edgeStyle=orthogonalEdgeStyle;rounded=0;orthogonalLoop=1;jettySize=auto;html=1;entryX=0.5;entryY=0;entryDx=0;entryDy=0;" edge="1" parent="WIyWlLk6GJQsqaUBKTNV-1" source="6Hut0MXTEwNpOhIjhO51-229" target="6Hut0MXTEwNpOhIjhO51-230">
          <mxGeometry relative="1" as="geometry" />
        </mxCell>
        <mxCell id="6Hut0MXTEwNpOhIjhO51-229" value="RTN&amp;nbsp;&lt;span style=&quot;color: rgb(33, 37, 41); font-family: SFMono-Regular, Menlo, Monaco, Consolas, &amp;quot;Liberation Mono&amp;quot;, &amp;quot;Courier New&amp;quot;, monospace; font-size: 13.125px; text-align: left; background-color: initial;&quot;&gt;cartasSeleccionadas [indice]&lt;/span&gt;" style="shape=hexagon;perimeter=hexagonPerimeter2;whiteSpace=wrap;html=1;size=0.25" vertex="1" parent="WIyWlLk6GJQsqaUBKTNV-1">
          <mxGeometry x="-598.25" y="6000" width="330" height="60" as="geometry" />
        </mxCell>
        <mxCell id="6Hut0MXTEwNpOhIjhO51-230" value="FIN" style="ellipse;whiteSpace=wrap;html=1;aspect=fixed;fillColor=#fff2cc;strokeColor=#d6b656;" vertex="1" parent="WIyWlLk6GJQsqaUBKTNV-1">
          <mxGeometry x="-457.75" y="6090" width="50" height="50" as="geometry" />
        </mxCell>
      </root>
    </mxGraphModel>
  </diagram>
</mxfile>
